# xmcd
#
# Track frame offsets:
# 150
# 18876
# 35941
# 50366
# 72626
# 85201
# 105295
# 124427
# 138632
# 156397
# 169219
#
# Disc length: 2468 seconds
#
#
# Revision: 0
# Processed by: cddbd v1.5.2PL0 Copyright (c) Steve Scherf et al.
# Submitted via: FreeRIP 2.942 
#
DISCID=9e09a20b
DTITLE=Jason Buie - Urban Blues
DYEAR=1900
DGENRE=Blues
TTITLE0=You Upset Me
TTITLE1=I Don't Want No Woman
TTITLE2=Dimples
TTITLE3=I Believe to My Soul
TTITLE4=Wild Woman
TTITLE5=Big Barbeque
TTITLE6=100 Cigarettes
TTITLE7=All By Myself
TTITLE8=Crosscut Saw
TTITLE9=Satisfy You
TTITLE10=Mean Old World
EXTD=
EXTT0=
EXTT1=
EXTT2=
EXTT3=
EXTT4=
EXTT5=
EXTT6=
EXTT7=
EXTT8=
EXTT9=
EXTT10=
PLAYORDER=
